<svg width="15" height="16" viewBox="0 0 15 16" fill="none" xmlns="http://www.w3.org/2000/svg">
<path d="M6.84607 15.2254C6.3867 15.2013 5.96617 14.9456 5.68121 14.5234L4.75236 13.1396C4.73378 13.1119 4.65564 13.0744 4.6227 13.066L4.28982 13.0486C1.51363 12.9031 -0.164583 12.0608 0.0315023 8.31924L0.205955 4.99048C0.360172 2.04785 1.99267 0.577938 4.9353 0.732155L10.2613 1.01128C13.204 1.1655 14.6739 2.798 14.5196 5.74062L14.3452 9.06939C14.191 12.012 12.5585 13.4819 9.61585 13.3277L9.28297 13.3103C9.22971 13.3075 9.18171 13.3317 9.14633 13.3699L8.07792 14.649C7.75039 15.0391 7.30544 15.2494 6.84607 15.2254ZM4.88296 1.73078C2.49957 1.60588 1.32949 2.65942 1.20459 5.04281L1.03013 8.37158C0.872426 11.3808 1.87887 11.9209 4.34216 12.05L4.67504 12.0674C5.01457 12.0852 5.39059 12.2985 5.58267 12.5823L6.51151 13.9661C6.72848 14.2846 7.06136 14.302 7.31042 14.008L8.37883 12.7288C8.61388 12.4474 8.96914 12.2924 9.33531 12.3116L9.66818 12.3291C12.0516 12.454 13.2217 11.4004 13.3466 9.01705L13.521 5.68829C13.6459 3.30489 12.5924 2.13482 10.209 2.00991L4.88296 1.73078Z" fill="#98A5B3"/>
</svg>
