<svg width="20" height="20" viewBox="0 0 20 20" fill="none" xmlns="http://www.w3.org/2000/svg">
<path d="M9.99999 1.66667C5.40832 1.66667 1.66666 5.40834 1.66666 10C1.66666 14.5917 5.40832 18.3333 9.99999 18.3333C14.5917 18.3333 18.3333 14.5917 18.3333 10C18.3333 5.40834 14.5917 1.66667 9.99999 1.66667ZM13.9833 8.08334L9.25832 12.8083C9.14166 12.925 8.98332 12.9917 8.81666 12.9917C8.64999 12.9917 8.49166 12.925 8.37499 12.8083L6.01666 10.45C5.77499 10.2083 5.77499 9.80834 6.01666 9.56667C6.25832 9.32501 6.65832 9.32501 6.89999 9.56667L8.81666 11.4833L13.1 7.20001C13.3417 6.95834 13.7417 6.95834 13.9833 7.20001C14.225 7.44167 14.225 7.83334 13.9833 8.08334Z" fill="#78C552"/>
</svg>
