<svg width="16" height="16" viewBox="0 0 16 16" fill="none" xmlns="http://www.w3.org/2000/svg">
<path d="M7.99998 15.1666C4.04665 15.1666 0.833313 11.9533 0.833313 7.99998C0.833313 4.04665 4.04665 0.833313 7.99998 0.833313C11.9533 0.833313 15.1666 4.04665 15.1666 7.99998C15.1666 11.9533 11.9533 15.1666 7.99998 15.1666ZM7.99998 1.83331C4.59998 1.83331 1.83331 4.59998 1.83331 7.99998C1.83331 11.4 4.59998 14.1666 7.99998 14.1666C11.4 14.1666 14.1666 11.4 14.1666 7.99998C14.1666 4.59998 11.4 1.83331 7.99998 1.83331Z" fill="#98A5B3"/>
<path d="M7.05334 10.3867C6.92 10.3867 6.79334 10.3333 6.7 10.24L4.81333 8.35334C4.62 8.16 4.62 7.84 4.81333 7.64667C5.00667 7.45334 5.32667 7.45334 5.52 7.64667L7.05334 9.18L10.48 5.75334C10.6733 5.56 10.9933 5.56 11.1867 5.75334C11.38 5.94667 11.38 6.26667 11.1867 6.46L7.40667 10.24C7.31334 10.3333 7.18667 10.3867 7.05334 10.3867Z" fill="#98A5B3"/>
</svg>
